<?xml version="1.0" encoding="UTF-8"?>
<svg id="Calque_2" data-name="Calque 2" xmlns="http://www.w3.org/2000/svg" viewBox="0 0 305.25 98.34">
  <defs>
    <style>
      .cls-1 {
        fill: #e43312;
      }

      .cls-2 {
        fill: #3061aa;
      }
    </style>
  </defs>
  <g id="Calque_1-2" data-name="Calque 1">
    <g>
      <g>
        <path class="cls-2" d="m23.43,27.34c-.46,4.36,1.09,7.66,4.63,9.88,2.78,1.73,6.24,2.59,10.37,2.59,2.46,0,6.45-.45,11.97-1.36,8.6-10.77,14.68-17.95,18.25-21.53,8.46-8.42,15.76-12.64,21.92-12.64,3.88,0,5.65,1.56,5.33,4.67-.64,6.13-6.27,12.5-16.89,19.11-8.83,5.49-16.63,8.92-23.39,10.3-6.13,7.98-10.58,13.24-13.35,15.76-3.89,3.52-9.46,6.93-16.73,10.21,3.31,1.59,7.14,2.38,11.5,2.38,4.99,0,10.64-1.98,16.93-5.94,1.53-1.03,3.13-2.08,4.82-3.17l.29.48-.29.57c-8.39,6.13-15.58,9.2-21.56,9.2-4.69,0-9.1-.95-13.23-2.86-8.46,1.91-14.05,2.86-16.76,2.86-5.09,0-7.5-1.39-7.21-4.18.24-2.29,2.72-3.44,7.43-3.44s10.3,1.1,16.76,3.3c8.11-2.91,16.57-10.89,25.38-23.95-4.17.88-7.83,1.32-10.97,1.32-4.46,0-8.19-.92-11.19-2.77-3.86-2.37-5.54-5.9-5.05-10.58.71-6.79,4.83-12.25,12.35-16.38,5.05-2.75,11.4-4.8,19.04-6.15,2.84-.5,4.49-.75,4.94-.75,1.01,0,1.53.18,1.54.53l-.56.66c-1.56.15-3.91.42-7.04.83-6.71,1.11-12.59,3.1-17.65,5.97-7.08,3.98-10.94,9-11.57,15.06Zm-1.07,36.88c-5.42-1.98-10.47-2.97-15.16-2.97-3.95,0-6.02.83-6.19,2.49-.11,1.05.66,1.85,2.3,2.4,1.13.38,2.35.57,3.67.57,5.27,0,10.4-.83,15.39-2.49ZM90.85,5.3c-5.85,0-12.26,3.84-19.22,11.51-2.35,2.62-7.4,9.32-15.14,20.1,6.42-1.32,13.85-4.63,22.28-9.92,10.17-6.38,15.56-12.48,16.16-18.3.24-2.26-1.13-3.39-4.09-3.39Z"/>
        <path class="cls-2" d="m83.38,57.82l.31.7-.2.44c-7.52,5.78-12.6,8.67-15.24,8.67-3.32,0-4.82-1.48-4.52-4.45.33-3.17,2.4-6.37,6.21-9.6,3.64-3.08,6.86-4.62,9.64-4.62,1.6,0,2.32.76,2.16,2.29-.18,1.76-1.56,3.32-4.14,4.67-2.37,1.12-4.75,2.25-7.12,3.39-2.59,1.47-3.99,3.26-4.21,5.37-.11,1.06.41,1.58,1.55,1.58,2.41,0,5.59-1.41,9.55-4.23,3.96-2.82,5.96-4.23,6.01-4.23Zm-11.95-.62c5.93-2.17,8.98-4.14,9.17-5.9.07-.68-.17-1.01-.73-1.01-1.95,0-4.76,2.3-8.44,6.91Z"/>
        <path class="cls-2" d="m143.38,34.27c1.16,0,2.36-.15,3.58-.44,6.41-6.55,13.82-12.77,22.24-18.67,10.5-7.37,18.58-11.05,24.23-11.05,3.67,0,5.37,1.32,5.1,3.96-.69,6.63-9.16,13.43-25.41,20.38-5.39,2.32-12.5,4.34-21.33,6.08-2.86,2.67-6.13,6.66-9.81,11.98-4.16,6.08-6.4,10.64-6.72,13.69-.22,2.11.71,3.76,2.8,4.93,1.66.91,3.51,1.36,5.57,1.36,4.39,0,9.55-1.8,15.48-5.41,6.64-4.05,10.2-8.41,10.69-13.08.15-1.44-.31-2.58-1.39-3.43-.92-.68-2.04-1.01-3.35-1.01-3.42,0-7.38,1.51-11.88,4.53-3.19,2.14-6.51,4.95-9.96,8.41-1.42,1.5-2.84,3.01-4.24,4.53l-.33-.48.2-.44c2.39-3.98,6.44-7.89,12.13-11.73,5.8-3.89,10.62-5.84,14.45-5.84,1.6,0,2.89.46,3.89,1.36,1.11,1.03,1.57,2.43,1.39,4.22-.52,5.01-4.16,9.65-10.92,13.93-6.05,3.81-11.42,5.71-16.11,5.71-2.79,0-5.24-.82-7.35-2.46-2.44-1.91-3.5-4.39-3.18-7.44.71-6.78,4.79-14.34,12.25-22.67-.8.18-1.64.26-2.5.26-3.32,0-6.21-1.1-8.66-3.3-2.76-2.44-3.95-5.5-3.56-9.2.77-7.37,5.01-13.27,12.72-17.7C149.87,1.56,156.53-.19,163.37.02l1.55.09.39.62-.4.53c-15.15,0-25.58,5.06-31.27,15.19-1.06,1.91-1.71,3.99-1.95,6.25-.37,3.52.78,6.4,3.43,8.63,2.33,1.97,5.08,2.95,8.25,2.95Zm54.21-26.24c.19-1.82-1.21-2.73-4.2-2.73-5.96,0-13.06,3.29-21.33,9.86-4.42,3.52-10.64,9.44-18.65,17.74,7.07-.97,13.54-2.77,19.42-5.41,15.9-7.13,24.15-13.62,24.76-19.46Z"/>
        <path class="cls-2" d="m196.11,57.82l.31.7-.2.44c-7.52,5.78-12.6,8.67-15.24,8.67-3.32,0-4.82-1.48-4.52-4.45.33-3.17,2.4-6.37,6.21-9.6,3.64-3.08,6.86-4.62,9.64-4.62,1.6,0,2.32.76,2.16,2.29-.18,1.76-1.56,3.32-4.14,4.67-2.37,1.12-4.75,2.25-7.12,3.39-2.59,1.47-3.99,3.26-4.21,5.37-.11,1.06.41,1.58,1.54,1.58,2.41,0,5.59-1.41,9.55-4.23,3.96-2.82,5.96-4.23,6.01-4.23Zm-11.95-.62c5.93-2.17,8.98-4.14,9.17-5.9.07-.68-.17-1.01-.73-1.01-1.95,0-4.76,2.3-8.44,6.91Z"/>
        <path class="cls-2" d="m203.46,58c3.51-3.08,6.11-5.52,7.79-7.31-.9-.35-1.3-1.04-1.19-2.07.18-1.76,1.06-2.64,2.63-2.64,1.01,0,1.46.6,1.33,1.8-.07.71-.37,1.28-.9,1.72,1.52,0,2.91-.22,4.17-.66l1.12,3.48c-2.03,2.23-4.07,4.46-6.1,6.69-3.27,3.67-4.94,5.78-5,6.34-.04.41.19.62.7.62,2.74,0,7.3-2.69,13.69-8.06l.38.71c-.13.97-2.43,2.73-6.9,5.28-4.34,2.47-7.1,3.7-8.29,3.7-1.6,0-2.28-1.1-2.05-3.3.18-1.76,1.7-4.27,4.55-7.53,1.93-2.02,3.87-4.05,5.8-6.08-.91.18-1.73.24-2.49.18-5.2,5.37-8.23,8.09-9.1,8.14l-.35-.62.19-.4Z"/>
        <path class="cls-2" d="m231.28,66.36c2.28,0,5.47-1.39,9.56-4.18,4.22-2.85,6.35-4.27,6.38-4.27l.38.75c-.15,1.17-2.73,2.99-7.75,5.46-4.86,2.35-8.01,3.52-9.45,3.52-2.33,0-3.34-1.53-3.02-4.58.33-3.2,2.41-6.35,6.23-9.47,3.6-2.96,6.82-4.45,9.66-4.45,2.36,0,3.44.91,3.25,2.73-.09.88-.45,1.64-1.08,2.29-.63.65-1.3.97-2.04.97-1.12,0-1.61-.56-1.5-1.67.15-1.47.94-2.2,2.36-2.2.36,0,.73.16,1.13.48-.39-.91-.99-1.37-1.8-1.37-1.98,0-4.8,1.84-8.46,5.53s-5.62,6.67-5.86,8.96c-.1,1,.57,1.5,2.01,1.5Z"/>
        <path class="cls-2" d="m271.19,57.95l.22.44c-.17,1.38-2.42,3.29-6.76,5.72-4.12,2.32-6.91,3.48-8.38,3.48-1.6,0-2.3-.95-2.1-2.86.15-1.47.81-3.04,1.98-4.71.15-.18,1.21-1.5,3.19-3.96-1.18.88-2.65,1.85-4.41,2.91l-.36-.57.28-.48c1.94-1.35,3.89-2.7,5.86-4.05,2.25-1.64,4.04-3.24,5.37-4.8,2.9-3.52,5.8-7.04,8.7-10.57,5.44-6.43,10.15-11.52,14.14-15.28,5.56-5.17,9.68-7.75,12.37-7.75.73,0,1.33.33,1.78.99.45.66.63,1.42.54,2.27-.32,3.05-2.56,6.4-6.71,10.04-2.68,2.35-6.84,5.31-12.48,8.89-5.46,3.46-8.73,5.68-9.82,6.65-2.47,2.29-5.39,5.47-8.75,9.55-2.78,3.35-5.55,6.71-8.31,10.08-.29.32-.62.85-1,1.59l.6.48c1.89.09,4.61-1.17,8.15-3.79,3.87-2.85,5.84-4.27,5.92-4.27Zm4.51-15.54c8.36-5.61,13.47-9.11,15.31-10.52,7.41-5.66,11.27-10.05,11.6-13.16.15-1.41-.41-2.11-1.68-2.11-2.89,0-7.35,3.52-13.38,10.57-1.76,2.02-5.71,7.1-11.85,15.23Z"/>
        <path class="cls-2" d="m296.01,57.82l.31.7-.2.44c-7.52,5.78-12.6,8.67-15.24,8.67-3.32,0-4.82-1.48-4.52-4.45.33-3.17,2.4-6.37,6.21-9.6,3.64-3.08,6.86-4.62,9.64-4.62,1.6,0,2.32.76,2.16,2.29-.18,1.76-1.56,3.32-4.14,4.67-2.37,1.12-4.75,2.25-7.12,3.39-2.59,1.47-3.99,3.26-4.21,5.37-.11,1.06.41,1.58,1.54,1.58,2.41,0,5.59-1.41,9.55-4.23,3.96-2.82,5.96-4.23,6.01-4.23Zm-11.95-.62c5.93-2.17,8.98-4.14,9.17-5.9.07-.68-.17-1.01-.73-1.01-1.95,0-4.76,2.3-8.44,6.91Z"/>
      </g>
      <path class="cls-1" d="m3,71.71h3.05v20.64h-3.05v-20.64Z"/>
      <path class="cls-1" d="m149.04,77.54h3.05v14.81h-3.05v-14.81Z"/>
      <path class="cls-1" d="m30.66,78.79h3.11l7.06,10.19h.14l6.93-10.19h3.06v13.28h-3.06v-10.88h-.1l-7.44,10.88h-.63l-7.53-10.8h-.21v10.8h-1.34v-13.28Z"/>
      <path class="cls-1" d="m74.1,78.48h5.74c.95,0,11.77-.78,11.77,7.15,0,7.47-14.3,6.25-14.47,6.21v6.49h-3.05v-19.85Zm3.05,12.35c.34.07,6.98,1.32,10.5-2.64,1.44-1.62,1.85-5.72-.63-7.02-3.02-2.12-7.15-1.71-7.71-1.71h-2.16v11.37Z"/>
      <path class="cls-1" d="m177.14,77.27h1.35c.34,0,.66.17.84.46l6.29,9.73h.13l6.17-9.72c.18-.29.5-.47.85-.47h1.3c.56,0,1,.45,1,1v12.27h-2.85v-10.88h-.1l-6.94,10.88h-.58l-7.02-10.8h-.19v10.8h-1.25v-12.27c0-.56.45-1,1-1Z"/>
      <path class="cls-1" d="m231.46,77.27v.86h-9.56v4.75h7.2v.86h-7.2v5.96h9.56v.86h-10.29c-1.28,0-2.32-1.04-2.32-2.32v-8.64c0-1.28,1.04-2.32,2.32-2.32h10.29Z"/>
      <path class="cls-1" d="m252.33,77.27h2.84v8.62c0,.57.12,1.1.37,1.6.25.5.6.94,1.06,1.31.46.38,1.01.67,1.66.89.65.22,1.37.32,2.17.32s1.54-.11,2.19-.32c.65-.22,1.2-.51,1.65-.89s.8-.81,1.04-1.31c.24-.5.36-1.03.36-1.6v-8.62h1.25v8.62c0,.68-.14,1.32-.42,1.92s-.72,1.13-1.32,1.58c-.6.45-1.37.81-2.3,1.08s-2.06.4-3.37.4c-1.17,0-2.2-.13-3.1-.4s-1.65-.62-2.26-1.08c-.61-.46-1.07-.99-1.38-1.6-.31-.61-.47-1.26-.47-1.94v-8.57Z"/>
      <path class="cls-1" d="m128.5,91.46l-6.61-6.44c.66-.11,1.26-.28,1.81-.49.55-.21,1.02-.46,1.41-.75.39-.29.69-.61.91-.97.21-.36.32-.74.32-1.16,0-.5-.14-.96-.42-1.39-.28-.42-.69-.79-1.24-1.1s-1.23-.55-2.05-.72c-.82-.17-1.78-.26-2.87-.26h-6.28v13.28h3.05v-12.45h2.68c.56,0,1.07.07,1.54.2.47.13.87.32,1.21.56.34.24.6.52.79.86.19.33.29.7.29,1.09,0,.43-.12.82-.36,1.17-.24.35-.57.65-1,.89-.43.25-.93.43-1.5.57-.46.11-.98.14-1.51.16l-.74-.03,7.04,6.98h3.53Z"/>
      <path class="cls-1" d="m305.25,90.24l-6.61-6.44c.66-.11,1.26-.28,1.81-.49.55-.21,1.02-.46,1.41-.75.39-.29.69-.61.91-.97.21-.36.32-.74.32-1.16,0-.5-.14-.96-.42-1.39-.28-.42-.69-.79-1.24-1.1s-1.23-.55-2.05-.72c-.82-.17-1.78-.26-2.87-.26h-6.28v13.28h3.05v-12.45h2.68c.56,0,1.07.07,1.54.2.47.13.87.32,1.21.56.34.24.6.52.79.86.19.33.29.7.29,1.09,0,.43-.12.82-.36,1.17-.24.35-.57.65-1,.89-.43.25-.93.43-1.5.57-.46.11-.98.14-1.51.16l-.74-.03,7.04,6.98h3.53Z"/>
      <ellipse class="cls-1" cx="150.52" cy="73.51" rx="1.78" ry="1.18"/>
    </g>
  </g>
</svg>