<?xml version="1.0" encoding="UTF-8"?>
<svg id="Layer_2" data-name="Layer 2" xmlns="http://www.w3.org/2000/svg" xmlns:xlink="http://www.w3.org/1999/xlink" viewBox="0 0 144.59 189.5">
  <defs>
    <style>
      .cls-1 {
        fill: #e23322;
      }

      .cls-2 {
        fill: #fff;
      }

      .cls-3 {
        filter: url(#drop-shadow-1);
      }

      .cls-4 {
        fill: #292b2d;
      }

      .cls-5 {
        fill: #ccc;
      }

      .cls-6 {
        fill: #3061a8;
      }

      .cls-7 {
        fill: none;
        stroke: #292b2d;
        stroke-miterlimit: 10;
        stroke-width: .25px;
      }
    </style>
    <filter id="drop-shadow-1" filterUnits="userSpaceOnUse">
      <feOffset dx="7" dy="7"/>
      <feGaussianBlur result="blur" stdDeviation="5"/>
      <feFlood flood-color="#000" flood-opacity=".16"/>
      <feComposite in2="blur" operator="in"/>
      <feComposite in="SourceGraphic"/>
    </filter>
  </defs>
  <g id="Calque_1" data-name="Calque 1">
    <polygon class="cls-5" points="15.12 189.5 144.59 173.02 128.11 0 0 16.71 15.12 189.5"/>
    <g class="cls-3">
      <g>
        <rect class="cls-2" x="7.32" y="10.99" width="123.65" height="173.45" transform="translate(-8.25 6.4) rotate(-5)"/>
        <g>
          <line class="cls-7" x1="38.26" y1="175.85" x2="39.25" y2="187.12"/>
          <g>
            <path class="cls-4" d="m40,175.79c.13-.04.33-.08.54-.1.3-.03.49,0,.65.11.13.08.21.21.23.39.02.22-.11.43-.35.54h0c.22.04.5.2.53.54.02.2-.05.36-.15.48-.15.16-.4.25-.78.29-.21.02-.36.02-.46.01l-.2-2.27Zm.38.92l.27-.02c.31-.03.49-.21.47-.43-.02-.27-.24-.36-.54-.33-.14.01-.21.03-.26.04l.06.74Zm.1,1.11c.06,0,.15,0,.25,0,.31-.03.58-.16.55-.5-.03-.31-.31-.42-.64-.39l-.25.02.08.88Z"/>
            <path class="cls-4" d="m42.15,175.57l.12,1.37c.05.52.29.72.6.69.34-.03.54-.28.5-.79l-.12-1.37.3-.03.12,1.35c.06.71-.29,1.03-.79,1.08-.47.04-.85-.2-.92-.91l-.12-1.36.3-.03Z"/>
            <path class="cls-4" d="m44.2,177.35c.14.07.34.12.55.1.3-.03.47-.2.45-.44-.02-.22-.15-.33-.47-.42-.39-.1-.64-.28-.67-.6-.03-.36.24-.65.69-.69.24-.02.41.02.52.07l-.06.25c-.08-.03-.24-.09-.45-.07-.31.03-.42.23-.4.38.02.22.17.31.5.41.4.12.62.29.65.63.03.36-.21.69-.75.74-.22.02-.47-.02-.6-.1l.05-.26Z"/>
            <path class="cls-4" d="m46.06,175.23l.2,2.31-.3.03-.2-2.31.3-.03Z"/>
            <path class="cls-4" d="m46.78,177.49l-.2-2.31.33-.03.84,1.1c.2.26.35.49.48.71h0c-.05-.31-.09-.59-.12-.95l-.08-.97.28-.02.2,2.31-.3.03-.84-1.11c-.18-.24-.36-.49-.5-.73h0c.04.29.07.57.11.95l.09.99-.28.02Z"/>
            <path class="cls-4" d="m50.14,176.11l-.9.08.07.83,1-.09.02.25-1.3.11-.2-2.31,1.25-.11.02.25-.95.08.06.73.9-.08.02.25Z"/>
            <path class="cls-4" d="m50.65,176.79c.14.07.34.12.55.1.3-.03.47-.2.45-.44-.02-.22-.15-.33-.48-.42-.39-.1-.64-.28-.67-.6-.03-.36.24-.65.69-.69.24-.02.41.02.52.07l-.06.25c-.08-.03-.24-.09-.45-.07-.31.03-.42.23-.41.38.02.22.17.31.5.41.4.12.62.29.65.63.03.36-.21.69-.75.74-.22.02-.47-.02-.6-.1l.05-.26Z"/>
            <path class="cls-4" d="m52.34,176.64c.14.07.34.12.55.1.3-.03.47-.2.45-.44-.02-.22-.15-.33-.48-.42-.39-.1-.64-.28-.67-.6-.03-.36.24-.65.69-.69.24-.02.41.02.52.07l-.06.25c-.08-.03-.24-.09-.45-.07-.31.03-.42.23-.4.38.02.22.17.31.5.41.4.12.62.29.65.63.03.36-.21.69-.75.74-.22.02-.47-.02-.6-.1l.05-.26Z"/>
          </g>
          <g>
            <path class="cls-4" d="m33.33,176.34l.3-.03.18,2.06.99-.09.02.25-1.28.11-.2-2.31Z"/>
            <path class="cls-4" d="m36.89,177.17c.07.79-.38,1.26-.97,1.31-.61.05-1.08-.38-1.14-1.08-.06-.73.35-1.25.97-1.31.63-.05,1.08.39,1.14,1.08Zm-1.79.19c.04.49.35.91.82.87.47-.04.7-.5.66-1.02-.04-.46-.32-.92-.82-.87-.49.04-.7.52-.66,1.03Z"/>
          </g>
          <g>
            <path class="cls-4" d="m34.85,181.85c-.13.06-.39.16-.7.19-.35.03-.65-.03-.89-.23-.22-.18-.37-.47-.4-.83-.06-.69.37-1.23,1.15-1.3.27-.02.48.02.58.06l-.05.25c-.13-.04-.29-.07-.52-.05-.56.05-.9.43-.85,1.01.05.59.43.9.97.85.2-.02.33-.06.39-.1l-.06-.69-.47.04-.02-.24.76-.07.1,1.11Z"/>
            <path class="cls-4" d="m37.18,180.56c.07.79-.38,1.26-.97,1.31-.61.05-1.08-.38-1.14-1.08-.06-.73.35-1.25.97-1.31.63-.05,1.08.39,1.14,1.08Zm-1.79.19c.04.49.35.91.82.87.47-.04.7-.5.66-1.02-.04-.46-.32-.92-.82-.87-.49.04-.7.52-.66,1.03Z"/>
          </g>
          <g>
            <path class="cls-4" d="m40.52,181.76l-.2-2.31.33-.03.84,1.1c.2.26.35.49.48.71h0c-.05-.31-.09-.59-.12-.95l-.08-.97.28-.02.2,2.31-.3.03-.84-1.11c-.18-.24-.36-.49-.5-.73h0c.04.29.07.57.11.96l.09.99-.28.02Z"/>
            <path class="cls-4" d="m43.09,180.8l-.18.75-.31.03.58-2.38.36-.03.99,2.24-.32.03-.31-.7-.82.07Zm.74-.3l-.28-.64c-.06-.15-.11-.28-.16-.41h0c-.02.14-.05.28-.08.43l-.17.69.7-.06Z"/>
            <path class="cls-4" d="m46.72,180.19c-.04-.32-.1-.71-.12-.99h0c-.06.28-.13.57-.21.9l-.31,1.16-.23.02-.47-1.07c-.14-.32-.26-.61-.35-.87h0c.02.29.04.68.05,1.03l.02,1-.28.02-.04-2.32.38-.03.49,1.08c.12.27.22.52.3.76h.01c.04-.24.1-.5.18-.8l.31-1.15.38-.03.35,2.3-.29.03-.15-1.01Z"/>
            <path class="cls-4" d="m48.72,179.95l-.9.08.07.83,1-.09.02.25-1.3.11-.2-2.31,1.25-.11.02.25-.95.08.06.73.9-.08.02.25Z"/>
          </g>
        </g>
      </g>
    </g>
    <g>
      <g>
        <path class="cls-6" d="m24.19,86.35c-.02,1.44.57,2.47,1.79,3.09.96.48,2.11.67,3.46.55.8-.07,2.09-.33,3.86-.79,2.5-3.76,4.28-6.27,5.34-7.54,2.52-2.99,4.78-4.57,6.79-4.75,1.26-.11,1.89.35,1.87,1.37-.03,2.02-1.69,4.26-4.96,6.71-2.72,2.04-5.17,3.38-7.33,4.03-1.77,2.78-3.07,4.62-3.9,5.52-1.17,1.26-2.89,2.53-5.16,3.81,1.12.42,2.4.57,3.82.45,1.63-.14,3.41-.95,5.35-2.42.47-.38.96-.77,1.48-1.17l.11.15-.08.19c-2.56,2.24-4.82,3.44-6.77,3.62-1.53.13-2.99-.05-4.4-.56-2.7.86-4.5,1.33-5.38,1.41-1.66.15-2.48-.24-2.47-1.16.01-.75.79-1.2,2.32-1.33s3.39.06,5.56.6c2.56-1.18,5.09-4.02,7.59-8.53-1.34.41-2.52.65-3.54.74-1.45.13-2.7-.07-3.73-.58-1.33-.66-1.98-1.77-1.95-3.31.04-2.24,1.22-4.13,3.56-5.69,1.57-1.04,3.58-1.89,6.03-2.55.91-.24,1.44-.37,1.59-.38.33-.03.5.01.52.13l-.16.23c-.5.09-1.26.25-2.27.47-2.15.55-4.02,1.37-5.59,2.45-2.2,1.5-3.31,3.25-3.34,5.24Zm.7,12.06c-1.82-.49-3.5-.67-5.03-.54-1.29.11-1.94.44-1.95.99,0,.34.27.58.82.72.38.09.78.12,1.21.08,1.72-.15,3.37-.57,4.95-1.25Zm20.65-21.17c-1.91.17-3.89,1.6-5.94,4.3-.69.92-2.15,3.25-4.36,6.99,2.06-.61,4.38-1.9,6.98-3.87,3.13-2.37,4.72-4.51,4.75-6.43.01-.74-.46-1.07-1.43-.99Z"/>
        <path class="cls-6" d="m44.61,94.58l.12.22-.05.15c-2.29,2.1-3.86,3.19-4.72,3.26-1.08.09-1.62-.35-1.6-1.32.02-1.04.6-2.14,1.75-3.31,1.1-1.11,2.1-1.7,3.01-1.78.52-.05.78.18.77.69,0,.58-.42,1.13-1.22,1.64-.74.43-1.48.87-2.23,1.31-.8.55-1.21,1.18-1.22,1.87,0,.35.18.51.55.47.79-.07,1.78-.62,2.99-1.65,1.21-1.03,1.82-1.55,1.84-1.55Zm-3.91.14c1.87-.88,2.81-1.61,2.82-2.18,0-.22-.09-.33-.27-.31-.64.06-1.49.89-2.55,2.49Z"/>
        <path class="cls-6" d="m63.5,85.18c.38-.03.77-.12,1.16-.25,1.9-2.32,4.14-4.56,6.72-6.72,3.21-2.7,5.74-4.13,7.58-4.29,1.2-.1,1.79.28,1.78,1.15-.04,2.18-2.6,4.64-7.7,7.37-1.69.91-3.95,1.77-6.78,2.59-.86.95-1.81,2.35-2.86,4.18-1.18,2.1-1.78,3.65-1.8,4.66-.01.7.34,1.2,1.05,1.53.57.25,1.18.34,1.85.29,1.43-.13,3.06-.86,4.89-2.21,2.05-1.51,3.09-3.03,3.11-4.57,0-.47-.18-.83-.55-1.08-.32-.19-.69-.27-1.12-.23-1.12.1-2.36.7-3.74,1.82-.98.79-1.98,1.8-3.01,3.03-.42.53-.84,1.06-1.25,1.6l-.12-.15.05-.15c.67-1.37,1.87-2.76,3.62-4.17,1.78-1.44,3.3-2.21,4.54-2.32.52-.05.96.07,1.31.33.39.3.58.75.57,1.34-.03,1.65-1.08,3.27-3.16,4.85-1.86,1.41-3.56,2.19-5.09,2.32-.91.08-1.73-.12-2.47-.59-.85-.55-1.27-1.33-1.25-2.34.04-2.23,1.15-4.81,3.35-7.74-.26.08-.53.13-.81.16-1.08.09-2.06-.18-2.92-.83-.97-.72-1.44-1.68-1.42-2.9.04-2.42,1.25-4.47,3.64-6.13,2-1.39,4.12-2.15,6.36-2.28l.51-.02.15.19-.11.18c-4.94.43-8.2,2.38-9.76,5.84-.29.65-.44,1.35-.46,2.09-.02,1.16.44,2.06,1.37,2.72.82.57,1.74.82,2.77.73Zm16.93-10.1c0-.6-.47-.86-1.45-.77-1.94.17-4.17,1.44-6.67,3.82-1.34,1.27-3.2,3.38-5.58,6.32,2.28-.52,4.34-1.29,6.18-2.32,4.98-2.78,7.49-5.13,7.52-7.05Z"/>
        <path class="cls-6" d="m81.36,91.36l.12.22-.05.15c-2.29,2.1-3.86,3.19-4.72,3.26-1.08.09-1.62-.35-1.6-1.32.02-1.04.6-2.14,1.75-3.31,1.1-1.11,2.1-1.7,3.01-1.78.52-.05.78.18.77.69,0,.58-.42,1.13-1.22,1.64-.74.43-1.48.87-2.23,1.31-.8.55-1.21,1.18-1.22,1.87,0,.35.18.51.55.47.79-.07,1.78-.62,2.99-1.65,1.21-1.03,1.82-1.55,1.84-1.55Zm-3.91.14c1.87-.88,2.81-1.61,2.82-2.18,0-.22-.09-.33-.27-.31-.64.06-1.49.89-2.55,2.49Z"/>
        <path class="cls-6" d="m83.77,91.21c1.06-1.11,1.84-1.97,2.33-2.61-.3-.09-.45-.3-.45-.64,0-.58.27-.89.78-.94.33-.03.49.15.49.55,0,.23-.09.43-.24.59.5-.04.94-.15,1.34-.33l.46,1.1c-.6.79-1.2,1.57-1.8,2.36-.96,1.29-1.45,2.03-1.45,2.21,0,.14.08.2.24.18.89-.08,2.3-1.08,4.23-3.02l.14.22c-.01.32-.71.96-2.1,1.92-1.34.93-2.21,1.41-2.6,1.44-.52.05-.77-.29-.76-1.02,0-.58.43-1.44,1.27-2.58.57-.72,1.15-1.43,1.72-2.15-.29.08-.56.13-.81.13-1.54,1.9-2.45,2.87-2.73,2.92l-.13-.19.05-.13Z"/>
        <path class="cls-6" d="m93.08,93.14c.74-.07,1.74-.61,3-1.64,1.3-1.05,1.95-1.57,1.96-1.57l.14.23c-.01.39-.81,1.05-2.37,2-1.52.9-2.51,1.38-2.98,1.42-.76.07-1.13-.4-1.12-1.41s.61-2.14,1.76-3.26c1.09-1.07,2.1-1.64,3.02-1.73.77-.07,1.15.2,1.14.8,0,.29-.1.55-.29.78-.19.23-.4.35-.64.37-.36.03-.54-.14-.54-.5,0-.48.24-.74.71-.78.12-.01.24.03.38.13-.15-.29-.36-.42-.62-.39-.64.06-1.51.74-2.6,2.04s-1.64,2.33-1.65,3.09c0,.33.23.47.7.43Z"/>
        <path class="cls-6" d="m105.85,89.26l.08.14c-.02.45-.7,1.14-2.04,2.06-1.28.87-2.15,1.33-2.63,1.37-.52.05-.78-.25-.77-.87,0-.48.18-1.01.51-1.59.04-.06.35-.52.93-1.38-.36.32-.81.68-1.35,1.07l-.13-.18.08-.17c.59-.5,1.19-.99,1.79-1.49.69-.6,1.22-1.17,1.61-1.72.85-1.23,1.69-2.46,2.54-3.69,1.59-2.25,2.98-4.05,4.17-5.38,1.66-1.84,2.93-2.8,3.81-2.88.24-.02.44.07.61.27.17.2.25.44.24.72-.02,1-.65,2.16-1.9,3.46-.81.84-2.08,1.93-3.82,3.26-1.68,1.29-2.68,2.1-3.01,2.45-.74.82-1.6,1.94-2.58,3.36-.81,1.17-1.62,2.35-2.42,3.52-.08.11-.18.3-.28.55l.21.14c.62-.03,1.47-.51,2.55-1.47,1.18-1.04,1.78-1.56,1.81-1.56Zm1.03-5.2c2.57-2.07,4.13-3.36,4.69-3.87,2.25-2.06,3.39-3.6,3.41-4.62,0-.46-.2-.68-.61-.64-.94.08-2.3,1.36-4.06,3.83-.52.71-1.66,2.48-3.43,5.3Z"/>
        <path class="cls-6" d="m113.94,88.51l.12.22-.05.15c-2.29,2.1-3.86,3.19-4.72,3.26-1.08.09-1.62-.35-1.6-1.32.02-1.04.6-2.14,1.75-3.31,1.1-1.11,2.1-1.7,3.01-1.78.52-.05.78.18.77.69,0,.58-.42,1.13-1.22,1.64-.74.43-1.48.87-2.23,1.31-.8.55-1.21,1.18-1.22,1.87,0,.35.18.51.55.47.79-.07,1.78-.62,2.99-1.65s1.82-1.55,1.84-1.55Zm-3.91.14c1.87-.88,2.81-1.61,2.82-2.18,0-.22-.09-.33-.27-.31-.64.06-1.49.89-2.55,2.49Z"/>
      </g>
      <path class="cls-1" d="m18.8,101.4l.99-.09.59,6.73-.99.09-.59-6.73Z"/>
      <path class="cls-1" d="m66.58,99.13l.99-.09.42,4.83-.99.09-.42-4.83Z"/>
      <path class="cls-1" d="m28.02,102.92l1.02-.09,2.59,3.12h.05s1.97-3.52,1.97-3.52l1-.09.38,4.33-1,.09-.31-3.55h-.03s-2.12,3.76-2.12,3.76l-.2.02-2.76-3.31h-.07s.31,3.53.31,3.53l-.44.04-.38-4.33Z"/>
      <path class="cls-1" d="m42.17,101.58l1.87-.16c.31-.03,3.82-.59,4.04,1.99.21,2.44-4.49,2.44-4.54,2.44l.19,2.12-.99.09-.57-6.47Zm1.35,3.94c.11.01,2.32.23,3.35-1.16.42-.57.44-1.92-.41-2.27-1.04-.6-2.38-.35-2.56-.34l-.7.06.32,3.71Z"/>
      <path class="cls-1" d="m75.73,98.24l.44-.04c.11,0,.22.04.29.13l2.33,2.99h.04s1.73-3.35,1.73-3.35c.05-.1.15-.17.26-.18l.42-.04c.18-.02.34.12.36.3l.35,4-.93.08-.31-3.55h-.03s-1.95,3.75-1.95,3.75l-.19.02-2.6-3.32h-.06s.31,3.53.31,3.53l-.41.04-.35-4c-.02-.18.12-.34.3-.36Z"/>
      <path class="cls-1" d="m93.45,96.69l.02.28-3.12.27.14,1.55,2.35-.21.02.28-2.35.21.17,1.94,3.12-.27.02.28-3.36.29c-.42.04-.79-.27-.82-.69l-.25-2.82c-.04-.42.27-.79.69-.82l3.36-.29Z"/>
      <path class="cls-1" d="m100.25,96.1l.93-.08.25,2.81c.02.18.07.35.17.51.09.16.22.29.38.4.16.11.35.19.57.24.22.05.46.07.72.04s.5-.08.7-.17c.21-.09.38-.2.51-.34s.24-.29.3-.46c.06-.17.09-.35.07-.53l-.25-2.81.41-.04.25,2.81c.02.22,0,.43-.08.64s-.2.39-.38.55c-.18.17-.42.3-.72.42s-.66.19-1.09.23c-.38.03-.72.02-1.02-.04s-.56-.16-.77-.29c-.21-.13-.38-.29-.5-.48-.12-.19-.19-.4-.21-.62l-.24-2.79Z"/>
      <path class="cls-1" d="m60.28,104.26l-2.34-1.91c.21-.06.4-.13.58-.21.17-.09.32-.18.44-.29.12-.11.21-.22.27-.34.06-.12.08-.25.07-.39-.01-.16-.07-.31-.18-.44-.1-.13-.25-.24-.44-.32s-.42-.14-.69-.18c-.27-.03-.59-.03-.94,0l-2.05.18.38,4.33.99-.09-.36-4.06.87-.08c.18-.02.35,0,.51.02.16.03.29.08.41.15.12.07.21.15.28.26.07.1.11.22.12.35.01.14-.02.27-.08.39-.07.12-.17.23-.3.32-.13.09-.29.17-.47.23-.15.05-.32.07-.49.1h-.24s2.49,2.09,2.49,2.09l1.15-.1Z"/>
      <path class="cls-1" d="m117.88,98.82l-2.34-1.91c.21-.06.4-.13.58-.21.17-.09.32-.18.44-.29.12-.11.21-.22.27-.34.06-.12.08-.25.07-.39-.01-.16-.07-.31-.18-.44-.1-.13-.25-.24-.44-.32s-.42-.14-.69-.18c-.27-.03-.59-.03-.94,0l-2.05.18.38,4.33.99-.09-.36-4.06.87-.08c.18-.02.35,0,.51.02.16.03.29.08.41.15.12.07.21.15.28.26.07.1.11.22.12.35.01.14-.02.27-.08.39-.07.12-.17.23-.3.32-.13.09-.29.17-.47.23-.15.05-.32.07-.49.1h-.24s2.49,2.09,2.49,2.09l1.15-.1Z"/>
      <ellipse class="cls-1" cx="66.95" cy="97.78" rx=".58" ry=".39" transform="translate(-8.27 6.21) rotate(-5)"/>
    </g>
  </g>
</svg>